<?xml version="1.0" encoding="UTF-8" standalone="no"?><!DOCTYPE svg PUBLIC "-//W3C//DTD SVG 1.1//EN" "http://www.w3.org/Graphics/SVG/1.1/DTD/svg11.dtd"><svg width="100%" height="100%" viewBox="0 0 38 38" version="1.1" xmlns="http://www.w3.org/2000/svg" xmlns:xlink="http://www.w3.org/1999/xlink" xml:space="preserve" xmlns:serif="http://www.serif.com/" style="fill-rule:evenodd;clip-rule:evenodd;stroke-linejoin:round;stroke-miterlimit:2;"><path id="mail" d="M36.868,9.341c0.127,0.513 0.193,1.049 0.193,1.594c-0,4.643 -0,11.216 -0,15.859c-0,1.483 -0.489,2.906 -1.359,3.955c-0.871,1.049 -2.051,1.638 -3.281,1.638c-7.04,-0 -20.343,-0 -27.383,-0c-1.23,-0 -2.41,-0.589 -3.281,-1.638c-0.87,-1.049 -1.359,-2.472 -1.359,-3.955c0,-4.643 0,-11.216 0,-15.859c0,-0.543 0.066,-1.078 0.192,-1.589l0.649,0.478l0.86,0.639l0.862,0.634l0.86,0.64l0.862,0.634l0.86,0.64l0.862,0.634l0.86,0.639l0.862,0.635l0.86,0.639l0.862,0.635l0.86,0.639l0.862,0.634l0.86,0.64l0.862,0.634l0.86,0.64l0.862,0.634l0.86,0.639l0.862,0.635l0.86,0.639c0.148,0.11 0.305,0.192 0.465,0.245c0.512,0.234 1.105,0.191 1.609,-0.179l0.234,-0.175l0.863,-0.632l0.861,-0.637l0.864,-0.632l0.861,-0.637l0.864,-0.632l0.861,-0.636l0.863,-0.632l0.861,-0.637l0.864,-0.632l0.861,-0.637l0.863,-0.631l0.861,-0.637l0.864,-0.632l0.861,-0.637l0.864,-0.632l0.861,-0.636l0.863,-0.632l0.861,-0.637l0.864,-0.632l0.578,-0.427Zm-33.886,-3.419c0.634,-0.378 1.336,-0.58 2.056,-0.58c7.04,0 20.343,0 27.383,0c0.718,0 1.419,0.201 2.052,0.577l-0.331,0.245l-0.863,0.632l-0.862,0.637l-0.863,0.632l-0.861,0.636l-0.864,0.632l-0.861,0.637l-0.863,0.632l-0.861,0.637l-0.864,0.631l-0.861,0.637l-0.863,0.632l-0.862,0.637l-0.863,0.632l-0.861,0.636l-0.864,0.632l-0.861,0.637l-0.863,0.632l-0.802,0.591l-0.101,-0.077l-0.862,-0.635l-0.86,-0.639l-0.862,-0.635l-0.86,-0.639l-0.862,-0.634l-0.86,-0.64l-0.862,-0.634l-0.86,-0.639l-0.862,-0.635l-0.86,-0.639l-0.862,-0.635l-0.86,-0.639l-0.862,-0.635l-0.86,-0.639l-0.862,-0.634l-0.86,-0.64l-0.862,-0.634l-0.86,-0.64l-0.099,-0.072Z" style="fill:#062034;"/></svg>