<?xml version="1.0" encoding="UTF-8" standalone="no"?><!DOCTYPE svg PUBLIC "-//W3C//DTD SVG 1.1//EN" "http://www.w3.org/Graphics/SVG/1.1/DTD/svg11.dtd"><svg width="100%" height="100%" viewBox="0 0 38 38" version="1.1" xmlns="http://www.w3.org/2000/svg" xmlns:xlink="http://www.w3.org/1999/xlink" xml:space="preserve" xmlns:serif="http://www.serif.com/" style="fill-rule:evenodd;clip-rule:evenodd;stroke-linejoin:round;stroke-miterlimit:2;"><path d="M18.985,0.32c-10.129,0 -18.354,8.225 -18.354,18.354c0,10.13 8.225,18.354 18.354,18.354c10.13,0 18.354,-8.224 18.354,-18.354c0,-10.129 -8.224,-18.354 -18.354,-18.354Zm3.833,31.207c0.005,-0.054 0.009,-0.111 0.013,-0.169c0.073,-1.162 0.023,-2.063 -0.09,-2.761l-0.179,-0.799c-0.369,-1.249 -0.943,-1.503 -0.943,-1.503c4.99,-0.32 6.417,-2.936 6.832,-6.17c0.415,-3.233 -1.521,-5.221 -1.521,-5.221c1.079,-2.734 -0.214,-3.87 -0.214,-3.87c-1.612,-0.297 -3.889,1.553 -3.889,1.553c-1.396,-0.403 -2.742,-0.517 -3.842,-0.512c-1.099,-0.005 -2.445,0.109 -3.841,0.512c0,-0 -2.277,-1.85 -3.889,-1.553c-0,-0 -1.293,1.136 -0.214,3.87c-0,-0 -1.936,1.988 -1.521,5.221c0.415,3.234 1.842,5.85 6.832,6.17c-0,-0 -0.665,0.263 -1.045,1.522l-0.077,0.285c-0.178,0.749 -0.257,1.798 -0.09,3.256c0.006,0.058 0.013,0.116 0.02,0.171c-5.54,-1.648 -9.584,-6.783 -9.584,-12.855c-0,-7.401 6.008,-13.409 13.409,-13.409c7.401,-0 13.41,6.008 13.41,13.409c-0,6.07 -4.041,11.203 -9.577,12.853Z" style="fill:#062034;"/></svg>