<?xml version="1.0" encoding="UTF-8" standalone="no"?><!DOCTYPE svg PUBLIC "-//W3C//DTD SVG 1.1//EN" "http://www.w3.org/Graphics/SVG/1.1/DTD/svg11.dtd"><svg width="100%" height="100%" viewBox="0 0 37 38" version="1.1" xmlns="http://www.w3.org/2000/svg" xmlns:xlink="http://www.w3.org/1999/xlink" xml:space="preserve" xmlns:serif="http://www.serif.com/" style="fill-rule:evenodd;clip-rule:evenodd;stroke-linejoin:round;stroke-miterlimit:2;"><path d="M36.713,0.32l-36.708,0l-0,36.708l36.708,0l0,-36.708Zm-20.348,26.977l3.86,0l0,-7.124c0,-0.353 0.025,-0.707 0.127,-0.96c0.279,-0.707 0.914,-1.44 1.981,-1.44c1.396,0 1.955,1.087 1.955,2.678l-0,6.846l3.859,0l0,-7.301c0,-3.637 -1.904,-5.33 -4.443,-5.33c-2.082,0 -3.327,1.188 -3.834,1.996l-0.077,-0l-0.177,-1.718l-3.352,0c0.051,1.112 0.101,2.4 0.101,3.941l0,8.412Zm-3.097,0l-0,-12.353l-3.86,0l0,12.353l3.86,0Zm-1.905,-17.708c-1.244,-0 -2.056,0.833 -2.056,1.92c-0,1.061 0.787,1.919 2.005,1.919c1.295,0 2.083,-0.858 2.083,-1.919c-0.026,-1.087 -0.788,-1.92 -2.032,-1.92Z" style="fill:#062034;"/></svg>