<?xml version="1.0" encoding="UTF-8" standalone="no"?><!DOCTYPE svg PUBLIC "-//W3C//DTD SVG 1.1//EN" "http://www.w3.org/Graphics/SVG/1.1/DTD/svg11.dtd"><svg width="100%" height="100%" viewBox="0 0 38 38" version="1.1" xmlns="http://www.w3.org/2000/svg" xmlns:xlink="http://www.w3.org/1999/xlink" xml:space="preserve" xmlns:serif="http://www.serif.com/" style="fill-rule:evenodd;clip-rule:evenodd;stroke-linejoin:round;stroke-miterlimit:2;"><path d="M38.005,0.32l-38,0l-0,38l38,0l-0,-38Zm-21.064,27.927l3.996,-0l-0,-7.375c-0,-0.366 0.026,-0.732 0.131,-0.994c0.289,-0.732 0.946,-1.49 2.05,-1.49c1.446,-0 2.024,1.124 2.024,2.772l0,7.087l3.996,-0l-0,-7.558c-0,-3.766 -1.972,-5.518 -4.6,-5.518c-2.156,0 -3.444,1.229 -3.969,2.066l-0.079,0l-0.184,-1.778l-3.47,-0c0.053,1.15 0.105,2.484 0.105,4.079l0,8.709Zm-3.207,-0l0,-12.788l-3.995,-0l0,12.788l3.995,-0Zm-1.971,-18.332c-1.288,-0 -2.129,0.863 -2.129,1.987c-0,1.099 0.815,1.988 2.076,1.988c1.341,-0 2.156,-0.889 2.156,-1.988c-0.026,-1.124 -0.815,-1.987 -2.103,-1.987Z" style="fill:#062034;"/></svg>