<?xml version="1.0" encoding="UTF-8" standalone="no"?><!DOCTYPE svg PUBLIC "-//W3C//DTD SVG 1.1//EN" "http://www.w3.org/Graphics/SVG/1.1/DTD/svg11.dtd"><svg width="100%" height="100%" viewBox="0 0 43 45" version="1.1" xmlns="http://www.w3.org/2000/svg" xmlns:xlink="http://www.w3.org/1999/xlink" xml:space="preserve" xmlns:serif="http://www.serif.com/" style="fill-rule:evenodd;clip-rule:evenodd;stroke-linejoin:round;stroke-miterlimit:2;"><g><path d="M2.99,2.469l9.568,0c-0.772,2.413 -1.871,4.346 -3.151,6.015l-6.417,0l-0,-6.015Z" style="fill:#062034;"/><path d="M36.094,16.751l6.005,0c0.716,16.03 -11.152,27.911 -25.573,27.827l-0,-6.025c14.352,-0.305 20.467,-13.074 19.568,-21.802Z" style="fill:#062034;"/><path d="M20.285,0.948l6.019,-0c0.253,6.145 -0.854,12.019 -4.876,17.311l6.944,-0c-0.892,2.496 -1.954,4.506 -3.196,5.999l-9.939,0c-6.438,4.303 -11.409,4.46 -14.5,4.514l-0,-6.012c10.631,0.067 20.417,-8.764 19.548,-21.812Z" style="fill:#062034;"/></g></svg>